General:

Format                           : Matroska
File size                        : 1.06 GiB
Duration                         : 2h 10mn
Overall bit rate                 : 1 164 Kbps
Movie name                       : Fast Five 2011 BRRip 720p [Dual Audio] 6Channels [English Hindi]
Encoded date                     : UTC 2011-09-16 19:02:23
Writing application              : mkvmerge v4.5.0 ('Speed of Light') built on Feb  1 2011 02:10:32
Writing library                  : libebml v1.2.0 + libmatroska v1.1.0

Video:

ID                               : 1
Format                           : AVC
Format/Info                      : Advanced Video Codec
Format profile                   : High@L3.1
Format settings, CABAC           : Yes
Format settings, ReFrames        : 4 frames
Muxing mode                      : Header stripping
Codec ID                         : V_MPEG4/ISO/AVC
Duration                         : 2h 10mn
Bit rate                         : 821 Kbps
Width                            : 1 280 pixels
Height                           : 544 pixels
Display aspect ratio             : 2.35:1
Original display aspect ratio    : 2.35:1
Frame rate                       : 23.976 fps
Color space                      : YUV
Chroma subsampling               : 4:2:0
Bit depth                        : 8 bits
Scan type                        : Progressive
Bits/(Pixel*Frame)               : 0.049
Stream size                      : 766 MiB (71%)

Audio #1
ID                               : 2
Format                           : AC-3
Format/Info                      : Audio Coding 3
Mode extension                   : CM (complete main)
Muxing mode                      : Header stripping
Codec ID                         : A_AC3
Duration                         : 2h 10mn
Bit rate mode                    : Constant
Bit rate                         : 160 Kbps
Channel(s)                       : 6 channels
Channel positions                : Front: L C R, Side: L R, LFE
Sampling rate                    : 48.0 KHz
Bit depth                        : 16 bits
Compression mode                 : Lossy
Stream size                      : 149 MiB (14%)
Title                            : HkhaN
Language                         : Hindi

Audio #2
ID                               : 3
Format                           : AC-3
Format/Info                      : Audio Coding 3
Mode extension                   : CM (complete main)
Muxing mode                      : Header stripping
Codec ID                         : A_AC3
Duration                         : 2h 10mn
Bit rate mode                    : Constant
Bit rate                         : 160 Kbps
Channel(s)                       : 6 channels
Channel positions                : Front: L C R, Side: L R, LFE
Sampling rate                    : 48.0 KHz
Bit depth                        : 16 bits
Compression mode                 : Lossy
Stream size                      : 149 MiB (14%)
Title                            : HkhaN
Language                         : English

Text
ID                               : 4
Format                           : UTF-8
Codec ID                         : S_TEXT/UTF8
Codec ID/Info                    : UTF-8 Plain Text
Title                            : HkhaN
Language                         : English


Images: 
http://postimage.org/image/1dxn2t66c/ 
http://postimage.org/image/1dxvchwn8/ 
http://postimage.org/image/1dy1ynamc/ 
http://postimage.org/image/1dy3m6n44/ 
http://postimage.org/image/1dy6x9c3o/ 
http://postimage.org/image/1dy8ksolg/


